<svg xmlns="http://www.w3.org/2000/svg" viewBox="0 0 512 512">
  <rect width="512" height="512" rx="64" fill="#0f172a"/>
  <g transform="translate(256,256)" fill="none" stroke="#F47C20" stroke-width="18" stroke-linecap="round" stroke-linejoin="round">
    <!-- House outline -->
    <path d="M0-155 L155,30 L155,175 L-155,175 L-155,30 Z"/>
    <!-- Circuit traces growing up from base -->
    <line x1="-80" y1="175" x2="-80" y2="60"/>
    <circle cx="-80" cy="50" r="8" fill="#F47C20"/>
    <line x1="-40" y1="175" x2="-40" y2="20"/>
    <circle cx="-40" cy="10" r="8" fill="#F47C20"/>
    <line x1="0" y1="175" x2="0" y2="-20"/>
    <circle cx="0" cy="-30" r="8" fill="#F47C20"/>
    <line x1="40" y1="175" x2="40" y2="30"/>
    <circle cx="40" cy="20" r="8" fill="#F47C20"/>
    <line x1="80" y1="175" x2="80" y2="70"/>
    <circle cx="80" cy="60" r="8" fill="#F47C20"/>
    <!-- Branch connections -->
    <line x1="-80" y1="90" x2="-40" y2="60"/>
    <line x1="-40" y1="50" x2="0" y2="20"/>
    <line x1="0" y1="10" x2="40" y2="60"/>
    <line x1="40" y1="70" x2="80" y2="100"/>
  </g>
</svg>